<?xml version="1.0" encoding="UTF-8"?>
<svg width="1000px" height="253px" viewBox="0 0 1000 253" version="1.1" xmlns="http://www.w3.org/2000/svg" xmlns:xlink="http://www.w3.org/1999/xlink">
    <!-- Generator: Sketch 45.2 (43514) - http://www.bohemiancoding.com/sketch -->
    <title>PCIPal_Logo-lg_Main-blue</title>
    <desc>Created with Sketch.</desc>
    <defs></defs>
    <g id="Page-1" stroke="none" stroke-width="1" fill="none" fill-rule="evenodd">
        <g id="PCIPal_Logo-lg_Main-blue" transform="translate(0.000000, -2.000000)">
            <g id="Pal" transform="translate(400.770713, 19.267823)" fill="#181C35">
                <path d="M99.638921,143.499229 C81.4192678,136.867245 71.8084778,117.318112 78.3884393,99.2391137 C84.9703276,81.1581888 105.249711,71.395183 123.469364,78.0271676 C141.689017,84.6572254 150.949133,105.173603 144.369171,123.252601 C137.787283,141.331599 117.858574,150.131214 99.638921,143.499229 M134.301734,48.2660886 C99.5734104,35.6263969 60.9414258,53.8614644 48.3980732,88.3238921 L0.540655106,219.801734 C17.1052023,225.828709 35.4192678,217.28921 41.4481696,200.72659 L59.0974952,152.24104 C66.6119461,161.464547 76.7179191,168.861464 88.8065511,173.260308 C123.534875,185.9 161.816185,168.63025 174.357611,134.167823 C186.900963,99.7073218 169.030058,60.9057803 134.301734,48.2660886" id="Fill-1"></path>
                <path d="M416.728131,2.20520231 C400.202119,-3.81213873 381.92659,4.71001927 375.913102,21.2360308 L318.531599,176.365125 C335.057611,182.380539 353.333141,173.860308 359.346628,157.33237 L416.728131,2.20520231 Z" id="Fill-3"></path>
                <path d="M287.865125,123.415607 C281.360308,141.52158 261.468208,150.402119 243.22158,143.847206 C224.973025,137.292293 215.28131,117.783622 221.786127,99.6757225 C228.290944,81.5678227 248.531792,71.7181118 266.77842,78.2749518 C285.025048,84.8317919 294.369942,105.307707 287.865125,123.415607 L287.865125,123.415607 Z M341.974952,68.5273603 C323.069364,59.3 308.759152,69.1034682 309.233141,69.6622351 C301.793834,60.9030829 291.435453,53.4734104 277.485549,48.4695568 C242.701349,35.9897881 204.150289,54.3712909 191.749518,88.883815 C179.352601,123.398266 197.734104,161.157418 232.512524,173.652601 C244.620424,178.003276 257.117534,178.781696 268.795761,176.496532 C278.601156,173.85684 293.855491,169.373218 303.780347,173.662235 L317.901734,134.207514 C318.098266,133.656455 318.238921,133.103468 318.423892,132.552408 L341.974952,68.5273603 Z" id="Fill-5"></path>
            </g>
            <g id="PCI" transform="translate(0.000000, 9.633911)" fill="#EB671F">
                <path d="M151.684586,148.53526 C120.279961,148.53526 94.8194605,123.076686 94.8194605,91.6701349 C94.8194605,60.2635838 120.279961,34.8050096 151.684586,34.8050096 C183.091137,34.8050096 208.551638,60.2635838 208.551638,91.6701349 C208.551638,123.076686 183.091137,148.53526 151.684586,148.53526 M233.403276,51.6431599 C218.5921,21.4639692 187.570906,0.681695568 151.684586,0.681695568 C119.717341,0.681695568 91.6190751,17.182659 75.3897881,42.1171484 C72.1104046,46.5949904 69.399422,51.5179191 67.4572254,56.8531792 L0.000578034682,243.388825 C16.1123314,249.252023 37.2375723,241.425434 43.1007707,225.315607 L54.6614644,190.271291 C54.7250482,190.350289 59.0217726,177.820424 59.0853565,177.899422 L73.5111753,138.226975 C89.3897881,164.831985 118.451445,182.656647 151.684586,182.656647 C185.967823,182.656647 215.811753,163.687476 231.322351,135.679769 C225.380154,123.602697 222.02948,110.018882 222.02948,95.6489403 C222.02948,79.6797688 226.164355,64.6816956 233.403276,51.6431599" id="Fill-7"></path>
                <path d="M405.289788,36.2042389 L353.031599,184.884393 C382.48632,180.003854 402.091329,155.360308 409.912139,127.932563 L453.416956,8.76685934 C430.374566,0.97495183 413.079769,13.1618497 405.289788,36.2042389" id="Fill-9"></path>
                <path d="M265.85106,95.6495183 C265.85106,64.2429672 291.311561,38.7843931 322.716185,38.7843931 C340.721965,38.7843931 356.766281,47.1581888 367.180539,60.2217726 L379.226782,24.0753372 C363.687283,11.7766859 344.074566,4.40867052 322.716185,4.40867052 C272.325048,4.40867052 231.477264,45.2583815 231.477264,95.6495183 C231.477264,146.040655 272.325048,186.890366 322.716185,186.890366 C329.770135,186.890366 336.625626,186.063776 343.219075,184.549326 L359.25183,139.215992 C349.369364,147.512717 336.62948,152.514644 322.716185,152.514644 C291.311561,152.514644 265.85106,127.056069 265.85106,95.6495183" id="Fill-11"></path>
            </g>
            <g id="Padlock" transform="translate(805.394990, 0.628131)" fill="#EB671F">
                <path d="M42.2568401,62.9603083 L49.8984586,42.3398844 C61.9466281,9.82928709 98.2086705,-6.83159923 130.728902,5.22042389 C163.25684,17.2743738 179.898459,53.538343 167.850289,86.0508671 L160.208671,106.671291 C152.351252,98.8466281 143.634489,92.0470135 134.26262,86.1818882 L138.360886,75.122158 C144.389788,58.8524085 136.08343,40.7406551 119.800193,34.705973 C103.516956,28.6732177 85.4129094,36.9988439 79.3859345,53.2685934 L75.2876686,64.3283237 C64.3647399,62.6712909 53.3127168,62.1452794 42.2568401,62.9603083" id="Fill-13"></path>
                <path d="M96.2990366,143.381888 C94.6015414,147.96185 90.9213873,151.085164 86.6362235,152.574566 L79.9078998,187.615029 L50.4184971,176.68632 L68.1487476,145.722929 C65.8674374,141.8 65.1102119,137.033141 66.8077071,132.453179 C69.8289017,124.30289 78.8693642,120.154528 87.0177264,123.173796 C95.1660886,126.19499 99.3183044,135.231599 96.2990366,143.381888 M28.4223507,72.3761079 C20.5071291,82.5418112 13.9156069,94.1834297 9.11406551,107.142967 C-9.95529865,158.605395 5.561079,213.106358 43.3067437,241.12948 C90.1988439,244.47052 137.487861,213.24316 156.557225,161.780732 C161.360694,148.823121 163.932948,135.6921 164.557225,122.823121 C131.807707,82.3895954 79.6169557,63.0485549 28.4223507,72.3761079" id="Fill-16"></path>
            </g>
            <g id="(R)" transform="translate(976.878613, 10.262042)" fill="#EB671F">
                <path d="M11.9250482,10.9071291 C12.3104046,10.9071291 12.6822736,10.8917148 13.0368015,10.8628131 C13.3913295,10.8300578 13.6996146,10.7452794 13.9655106,10.6026975 C14.2256262,10.4620424 14.4414258,10.2635838 14.6032755,10.0092486 C14.7651252,9.75491329 14.8479769,9.39653179 14.8479769,8.9283237 C14.8479769,8.54296724 14.7612717,8.24046243 14.5878613,8.01695568 C14.4144509,7.79344894 14.1986513,7.62003854 13.9346821,7.49865125 C13.6687861,7.37726397 13.3759152,7.30019268 13.0522158,7.26936416 C12.7265896,7.24046243 12.4125241,7.22504817 12.1080925,7.22504817 L9.61290944,7.22504817 L9.61290944,10.9071291 L11.9250482,10.9071291 Z M9.61290944,18.0593449 L7.54354528,18.0593449 L7.54354528,5.46011561 L12.3200385,5.46011561 C13.8421965,5.46011561 14.988632,5.7433526 15.7593449,6.31175337 C16.5300578,6.88015414 16.917341,7.80308285 16.917341,9.0805395 C16.917341,10.217341 16.6013487,11.049711 15.9732177,11.5776493 C15.3431599,12.1055877 14.5608863,12.4196532 13.6302505,12.5198459 L17.1601156,18.0593449 L14.8171484,18.0593449 L11.5608863,12.6739884 L9.61290944,12.6739884 L9.61290944,18.0593449 Z M20.5685934,11.5468208 C20.5685934,10.1672447 20.3450867,8.89942197 19.9,7.74142582 C19.4510597,6.58535645 18.8325626,5.5911368 18.0425819,4.76069364 C17.2526012,3.92639692 16.3277457,3.28285164 15.271869,2.82813102 C14.2179191,2.36955684 13.0811175,2.14219653 11.8633911,2.14219653 C10.6263969,2.14219653 9.4761079,2.36955684 8.4105973,2.82813102 C7.34508671,3.28285164 6.41637765,3.92639692 5.62447013,4.76069364 C4.83256262,5.5911368 4.21406551,6.58535645 3.76897881,7.74142582 C3.32196532,8.89942197 3.09845857,10.1672447 3.09845857,11.5468208 C3.09845857,12.8454721 3.30077071,14.0631985 3.70732177,15.1980732 C4.11194605,16.3348748 4.69768786,17.3290944 5.45876686,18.1807322 C6.21791908,19.0342967 7.13699422,19.7086705 8.21213873,20.2057803 C9.28728324,20.7009634 10.5050096,20.9495183 11.8633911,20.9495183 C13.0811175,20.9495183 14.2179191,20.722158 15.271869,20.2655106 C16.3277457,19.8088632 17.2526012,19.1653179 18.0425819,18.332948 C18.8325626,17.500578 19.4510597,16.5121387 19.9,15.3657033 C20.3450867,14.2192678 20.5685934,12.9475915 20.5685934,11.5468208 L20.5685934,11.5468208 Z M23.0040462,11.5468208 C23.0040462,13.2500963 22.7034682,14.8030829 22.1061657,16.2038536 C21.5069364,17.6026975 20.6957611,18.8011561 19.6726397,19.7934489 C18.6456647,20.7876686 17.4587669,21.5583815 16.1100193,22.1075145 C14.7612717,22.6547206 13.3431599,22.9283237 11.8633911,22.9283237 C10.2198459,22.9283237 8.71310212,22.6393064 7.34508671,22.0612717 C5.97514451,21.483237 4.79788054,20.6874759 3.81522158,19.6720617 C2.82870906,18.6585742 2.05992293,17.456262 1.50115607,16.0651252 C0.94238921,14.677842 0.66300578,13.1691715 0.66300578,11.5468208 C0.66300578,9.8416185 0.963583815,8.29055877 1.56088632,6.88978805 C2.16011561,5.48901734 2.97321773,4.29248555 3.99633911,3.2982659 C5.02138728,2.30404624 6.21406551,1.53333333 7.57244701,0.986127168 C8.93082852,0.43699422 10.3624277,0.163391137 11.8633911,0.163391137 C13.3431599,0.163391137 14.7612717,0.43699422 16.1100193,0.986127168 C17.4587669,1.53333333 18.6456647,2.30404624 19.6726397,3.2982659 C20.6957611,4.29248555 21.5069364,5.48901734 22.1061657,6.88978805 C22.7034682,8.29055877 23.0040462,9.8416185 23.0040462,11.5468208 L23.0040462,11.5468208 Z" id="Fill-18"></path>
            </g>
        </g>
    </g>
</svg>