<?xml version="1.0" encoding="UTF-8"?>
<svg width="217px" height="304px" viewBox="0 0 217 304" version="1.1" xmlns="http://www.w3.org/2000/svg" xmlns:xlink="http://www.w3.org/1999/xlink">
    <!-- Generator: Sketch 45.2 (43514) - http://www.bohemiancoding.com/sketch -->
    <title>PCIPal_Padlock-Black</title>
    <desc>Created with Sketch.</desc>
    <defs>
        <polygon id="path-1" points="0.000197571799 0.116 216.22683 0.116 216.22683 303.999767 0.000197571799 303.999767"></polygon>
    </defs>
    <g id="Page-1" stroke="none" stroke-width="1" fill="none" fill-rule="evenodd">
        <g id="PCIPal_Padlock-Black">
            <mask id="mask-2" fill="white">
                <use xlink:href="#path-1"></use>
            </mask>
            <g id="Clip-2"></g>
            <path d="M52.288,78.168 L61.96,52.067 C77.21,10.914 123.113,-10.174 164.275,5.08 C205.448,20.337 226.512,66.242 211.262,107.394 L201.589,133.495 C191.645,123.591 180.612,114.984 168.747,107.562 L173.936,93.562 C181.568,72.967 171.055,50.043 150.444,42.405 C129.832,34.767 106.916,45.307 99.285,65.899 L94.097,79.899 C80.272,77.801 66.285,77.136 52.288,78.168" id="Fill-1" fill="#131614" mask="url(#mask-2)"></path>
            <path d="M120.695,179.964 C118.546,185.762 113.888,189.713 108.463,191.599 L99.947,235.953 L62.618,222.12 L85.061,182.927 C82.175,177.961 81.218,171.929 83.367,166.131 C87.189,155.815 98.632,150.564 108.947,154.386 C119.261,158.208 124.518,169.647 120.695,179.964 Z M34.779,90.085 C24.758,102.954 16.415,117.69 10.337,134.093 C-13.802,199.233 5.839,268.22 53.618,303.691 C112.974,307.921 172.83,268.394 196.969,203.254 C203.048,186.852 206.304,170.23 207.095,153.941 C165.64,102.76 99.578,78.279 34.779,90.085 L34.779,90.085 Z" id="Fill-3" fill="#131614" mask="url(#mask-2)"></path>
        </g>
    </g>
</svg>